<?xml version="1.0"?>
<svg xmlns="http://www.w3.org/2000/svg" xmlns:xlink="http://www.w3.org/1999/xlink" version="1.1" id="Capa_1" x="0px" y="0px" viewBox="0 0 511.999 511.999" style="enable-background:new 0 0 511.999 511.999;" xml:space="preserve" width="512px" height="512px" class=""><g><polygon style="fill:#F5F8FA" points="131.095,110.739 93.252,148.582 442.932,493.29 476.991,489.506 480.775,455.447 " data-original="#B7E4F8" class="" data-old_color="#B7E4F8"/><polygon style="fill:#CED9E0" points="131.095,110.739 106.15,124.639 476.991,489.506 480.775,455.447 " data-original="#93D6F4" class="" data-old_color="#93D6F4"/><g>
	<polygon style="fill:#DB3737" points="121.204,70.994 30.873,48.36 53.507,138.69 94.879,168.242 150.755,112.366  " data-original="#DC3910" class="" data-old_color="#DC3910"/>
	<polygon style="fill:#DB3737" points="121.204,70.994 30.873,48.36 53.507,138.69 94.879,168.242 150.755,112.366  " data-original="#DC3910" class="" data-old_color="#DC3910"/>
</g><polygon style="fill:#A82A2A" points="121.204,70.994 30.873,48.36 116.853,134.34 150.755,112.366 " data-original="#942308" class="active-path" data-old_color="#942308"/><g>
	
		<rect x="44.05" y="114.606" transform="matrix(-0.7071 0.7071 -0.7071 -0.7071 283.1581 142.0277)" style="fill:#FFC940" width="136.229" height="30.104" data-original="#FFC266" class="" data-old_color="#FFC266"/>
	<path style="fill:#FFC940" d="M72.9,53.928c0-9.739-3.792-18.894-10.679-25.78c-14.215-14.215-37.345-14.215-51.561,0   c-14.214,14.216-14.214,37.346,0,51.561c6.886,6.887,16.042,10.679,25.78,10.679c9.739,0,18.895-3.792,25.78-10.679   C69.108,72.824,72.9,63.667,72.9,53.928z" data-original="#FFC266" class="" data-old_color="#FFC266"/>
</g><path style="fill:#F2B824" d="M62.221,79.709C69.108,72.824,72.9,63.667,72.9,53.928s-3.792-18.894-10.679-25.78  c-14.215-14.215-37.345-14.215-51.561,0" data-original="#FFAE33" class="" data-old_color="#FFAE33"/><polygon style="fill:#F5F8FA" points="380.905,110.739 418.747,148.582 69.067,493.29 35.008,489.506 31.224,455.447 " data-original="#B7E4F8" class="" data-old_color="#B7E4F8"/><polygon style="fill:#CED9E0" points="380.905,110.739 405.85,124.639 35.008,489.506 31.224,455.447 " data-original="#93D6F4" class="" data-old_color="#93D6F4"/><g>
	<polygon style="fill:#DB3737" points="390.796,70.994 481.126,48.36 458.492,138.69 417.12,168.242 361.245,112.366  " data-original="#DC3910" class="" data-old_color="#DC3910"/>
	<polygon style="fill:#DB3737" points="390.796,70.994 481.126,48.36 458.492,138.69 417.12,168.242 361.245,112.366  " data-original="#DC3910" class="" data-old_color="#DC3910"/>
</g><polygon style="fill:#A82A2A" points="390.796,70.994 481.126,48.36 395.147,134.34 361.245,112.366 " data-original="#942308" class="active-path" data-old_color="#942308"/><g>
	
		<rect x="331.712" y="114.624" transform="matrix(0.7071 0.7071 -0.7071 0.7071 208.8007 -244.7389)" style="fill:#FFC940" width="136.229" height="30.104" data-original="#FFC266" class="" data-old_color="#FFC266"/>
	<path style="fill:#FFC940" d="M439.098,53.928c0-9.739,3.792-18.894,10.679-25.78c14.215-14.215,37.345-14.215,51.561,0   c14.215,14.216,14.215,37.346,0,51.561c-6.886,6.887-16.042,10.679-25.78,10.679c-9.739,0-18.895-3.792-25.78-10.679   C442.891,72.824,439.098,63.667,439.098,53.928z" data-original="#FFC266" class="" data-old_color="#FFC266"/>
</g><path style="fill:#F2B824" d="M449.778,79.709c-6.887-6.886-10.679-16.042-10.679-25.781s3.792-18.894,10.679-25.78  c14.215-14.215,37.345-14.215,51.561,0" data-original="#FFAE33" class="" data-old_color="#FFAE33"/><path style="fill:#DB3737" d="M384.531,184.409C382.181,182.76,326.16,144,256,144c-70.161,0-126.181,38.759-128.531,40.409  l-5.911,4.149v7.223c0,45.842,6.572,89.021,19.534,128.34c10.428,31.631,24.987,60.836,43.274,86.802  c31.427,44.626,63.039,64.307,64.37,65.123l7.265,4.455l7.265-4.455c1.33-0.816,32.943-20.497,64.369-65.123  c18.287-25.968,32.846-55.172,43.274-86.802c12.963-39.319,19.534-82.498,19.534-128.34v-7.223L384.531,184.409z" data-original="#DC3910" class="" data-old_color="#DC3910"/><path style="fill:#A82A2A" d="M256,480.503l7.265-4.455c1.33-0.816,32.943-20.497,64.369-65.123  c18.287-25.968,32.846-55.172,43.274-86.802c12.963-39.319,19.534-82.498,19.534-128.34v-7.223l-5.911-4.149  c-2.35-1.65-58.371-40.409-128.531-40.409" data-original="#942308" class="active-path" data-old_color="#942308"/><path style="fill:#FFC940" d="M395.233,173.765c-2.546-1.787-63.232-43.774-139.233-43.774  c-76.002,0-136.687,41.986-139.233,43.774l-6.404,4.495v7.824c0,49.658,7.12,96.434,21.161,139.026  c11.296,34.264,27.068,65.901,46.878,94.03c34.043,48.342,68.289,69.661,69.73,70.545l7.869,4.827l7.87-4.827  c1.441-0.884,35.686-22.203,69.729-70.545c19.809-28.129,35.582-59.766,46.878-94.03c14.041-42.592,21.161-89.367,21.161-139.026  v-7.824L395.233,173.765z M352.23,314.637c-10.215,31.312-24.457,60.202-42.331,85.867c-13.258,19.037-27.177,34.158-38.847,45.079  v-69.927c1.542-2.181,3.069-4.384,4.546-6.617c25.515-38.575,41.426-84.308,47.293-135.926l1.331-11.708l-11.047-4.102  c-14.476-5.376-28.584-8.815-42.123-10.302v-46.265c46.534,3.897,85.509,24.631,100.411,33.573  C370.734,237.281,364.273,277.72,352.23,314.637z M160.114,315.684c-12.264-37.201-18.841-77.998-19.578-121.375  c14.902-8.943,53.877-29.675,100.412-33.573v46.251c-13.609,1.472-27.72,4.896-42.132,10.25l-11.042,4.102l1.329,11.704  c5.861,51.648,21.776,97.403,47.301,135.994c1.473,2.228,2.999,4.432,4.545,6.617v69.953  c-10.824-10.071-24.332-24.486-37.935-43.802C184.914,376.105,170.48,347.129,160.114,315.684z M220.597,241.7  c12.356-3.617,24.222-5.446,35.403-5.446c11.1,0,22.964,1.847,35.395,5.504c-5.711,38.104-17.586,72.304-35.395,101.936  C238.181,314.047,226.303,279.831,220.597,241.7z" data-original="#FFC266" class="" data-old_color="#FFC266"/><path id="SVGCleanerId_0" style="fill:#F2B824" d="M395.233,173.765c-2.546-1.787-63.232-43.774-139.233-43.774  c-0.073,0-0.146,0.002-0.219,0.002v106.266c0.072,0,0.146-0.004,0.219-0.004c11.1,0,22.964,1.847,35.395,5.504  c-5.711,38.104-17.586,72.304-35.395,101.936c-0.074-0.124-0.145-0.252-0.219-0.375v151.059l0.219,0.134l7.87-4.827  c1.441-0.884,35.686-22.203,69.729-70.545c19.809-28.129,35.582-59.766,46.878-94.03c14.041-42.592,21.161-89.367,21.161-139.026  v-7.824L395.233,173.765z M352.23,314.637c-10.215,31.312-24.457,60.202-42.331,85.867c-13.258,19.037-27.177,34.158-38.847,45.079  v-69.927c1.542-2.181,3.069-4.384,4.546-6.617c25.515-38.575,41.426-84.308,47.293-135.926l1.331-11.708l-11.047-4.102  c-14.476-5.376-28.584-8.815-42.123-10.302v-46.265c46.534,3.897,85.509,24.631,100.411,33.573  C370.734,237.281,364.273,277.72,352.23,314.637z" data-original="#FFAE33" class="" data-old_color="#FFAE33"/><g>
	<path id="SVGCleanerId_0_1_" style="fill:#F2B824" d="M395.233,173.765c-2.546-1.787-63.232-43.774-139.233-43.774   c-0.073,0-0.146,0.002-0.219,0.002v106.266c0.072,0,0.146-0.004,0.219-0.004c11.1,0,22.964,1.847,35.395,5.504   c-5.711,38.104-17.586,72.304-35.395,101.936c-0.074-0.124-0.145-0.252-0.219-0.375v151.059l0.219,0.134l7.87-4.827   c1.441-0.884,35.686-22.203,69.729-70.545c19.809-28.129,35.582-59.766,46.878-94.03c14.041-42.592,21.161-89.367,21.161-139.026   v-7.824L395.233,173.765z M352.23,314.637c-10.215,31.312-24.457,60.202-42.331,85.867c-13.258,19.037-27.177,34.158-38.847,45.079   v-69.927c1.542-2.181,3.069-4.384,4.546-6.617c25.515-38.575,41.426-84.308,47.293-135.926l1.331-11.708l-11.047-4.102   c-14.476-5.376-28.584-8.815-42.123-10.302v-46.265c46.534,3.897,85.509,24.631,100.411,33.573   C370.734,237.281,364.273,277.72,352.23,314.637z" data-original="#FFAE33" class="" data-old_color="#FFAE33"/>
</g></g> </svg>
